<?xml version="1.0" encoding="UTF-8" standalone="no" ?>
<!DOCTYPE svg PUBLIC "-//W3C//DTD SVG 1.1//EN" "http://www.w3.org/Graphics/SVG/1.1/DTD/svg11.dtd">
<svg xmlns="http://www.w3.org/2000/svg" xmlns:xlink="http://www.w3.org/1999/xlink" version="1.1" width="500" height="180" viewBox="0 0 500 180" xml:space="preserve">
<desc>Created with Fabric.js 5.2.4</desc>
<defs>
</defs>
<g transform="matrix(1 0 0 1 250 90)" id="e4dc5679-abd7-4f6f-b226-fd8e42b100c2"  >
<rect style="stroke: none; stroke-width: 1; stroke-dasharray: none; stroke-linecap: butt; stroke-dashoffset: 0; stroke-linejoin: miter; stroke-miterlimit: 4; fill: rgb(255,255,255); fill-rule: nonzero; opacity: 1; visibility: hidden;" vector-effect="non-scaling-stroke"  x="-250" y="-90" rx="0" ry="0" width="500" height="180" />
</g>
<g transform="matrix(Infinity NaN NaN Infinity 0 0)" id="b0331f14-98c4-448f-90fb-c0fa0972ecc8"  >
</g>
<g transform="matrix(1.38 0 0 1.38 250 90)" id="a16acc79-806b-40ad-bf4e-258e4fdd800e"  >
<path style="stroke: rgb(0,0,0); stroke-width: 0; stroke-dasharray: none; stroke-linecap: butt; stroke-dashoffset: 0; stroke-linejoin: miter; stroke-miterlimit: 4; fill: rgb(225,6,0); fill-rule: nonzero; opacity: 1;" vector-effect="non-scaling-stroke"  transform=" translate(-280, -200)" d="M 403.257 244.997 L 405.132 244.997 L 405.132 236.318 L 405.165 236.318 L 408.28200000000004 244.997 L 409.90500000000003 244.997 L 413.02200000000005 236.318 L 413.05500000000006 236.318 L 413.05500000000006 244.997 L 414.93000000000006 244.997 L 414.93000000000006 233.75 L 412.18800000000005 233.75 L 409.16400000000004 242.555 L 409.13100000000003 242.555 L 406.02900000000005 233.75 L 403.25700000000006 233.75 z M 392.88 235.45100000000002 L 396.438 235.45100000000002 L 396.438 244.997 L 398.406 244.997 L 398.406 235.45100000000002 L 401.982 235.45100000000002 L 401.982 233.75000000000003 L 392.88000000000005 233.75000000000003 z M 369.997 244.997 L 459.994 155 L 405.82800000000003 155 L 315.83400000000006 244.997 L 370.00000000000006 244.997 z M 357.094 194.19400000000002 L 248.147 194.19400000000002 C 214.944 194.19400000000002 209.13299999999998 195.955 194.911 210.17700000000002 C 181.609 223.47600000000003 160.00400000000002 245.00000000000003 160.00400000000002 245.00000000000003 L 207.19800000000004 245.00000000000003 L 218.45700000000005 233.73800000000003 C 225.86100000000005 226.33700000000002 229.67700000000005 225.56900000000002 245.21900000000005 225.56900000000002 L 325.7180000000001 225.56900000000002 L 357.09100000000007 194.193 L 357.09400000000005 194.193 z M 193.458 203.758 C 183.636 213.02800000000002 162.262 233.787 150.742 244.99800000000002 L 100.005 244.99800000000002 C 100.005 244.99800000000002 140.66 204.46000000000004 163.25799999999998 182.216 C 186.54 160.056 198.14399999999998 155.001 240.84699999999998 155.001 L 396.28999999999996 155.001 L 362.63399999999996 188.657 L 244.00599999999997 188.657 C 214.00099999999998 188.657 207.25999999999996 190.73600000000002 193.46099999999996 203.758 z" stroke-linecap="round" />
</g>
</svg>